<?xml version="1.0"?>
<!DOCTYPE svg PUBLIC "-//W3C//DTD SVG 1.1//EN"
	"http://www.w3.org/Graphics/SVG/1.1/DTD/svg11.dtd">
<svg version="1.1" xmlns="http://www.w3.org/2000/svg"
	xmlns:xlink="http://www.w3.org/1999/xlink"
	width="800" height="600"
	viewBox="-4 -3 8 6"
	preserveAspectRatio="xMidYMid meet">
	<defs>
		<g id="enneadecagon" stroke="black" stroke-width="0.01" fill="none">
			<polygon points="
				1.0, 0.0
				0.9458172417006346, 0.32469946920468346
				0.7891405093963936, 0.6142127126896678
				0.5469481581224269, 0.8371664782625285
				0.24548548714079924, 0.9694002659393304
				-0.08257934547233227, 0.9965844930066698
				-0.4016954246529694, 0.9157733266550574
				-0.6772815716257409, 0.7357239106731318
				-0.879473751206489, 0.4759473930370737
				-0.9863613034027223, 0.16459459028073403
				-0.9863613034027224, -0.16459459028073378
				-0.8794737512064893, -0.4759473930370731
				-0.6772815716257411, -0.7357239106731316
				-0.40169542465296904, -0.9157733266550576
				-0.08257934547233274, -0.9965844930066698
				0.2454854871407988, -0.9694002659393305
				0.5469481581224266, -0.8371664782625288
				0.7891405093963939, -0.6142127126896674
				0.9458172417006346, -0.32469946920468373
			" />
			<line x1="0" y1="0" x2="1.0" y2="0.0" />
			<line x1="0" y1="0" x2="0.9458172417006346" y2="0.32469946920468346" />
			<line x1="0" y1="0" x2="0.7891405093963936" y2="0.6142127126896678" />
			<line x1="0" y1="0" x2="0.5469481581224269" y2="0.8371664782625285" />
			<line x1="0" y1="0" x2="0.24548548714079924" y2="0.9694002659393304" />
			<line x1="0" y1="0" x2="-0.08257934547233227" y2="0.9965844930066698" />
			<line x1="0" y1="0" x2="-0.4016954246529694" y2="0.9157733266550574" />
			<line x1="0" y1="0" x2="-0.6772815716257409" y2="0.7357239106731318" />
			<line x1="0" y1="0" x2="-0.879473751206489" y2="0.4759473930370737" />
			<line x1="0" y1="0" x2="-0.9863613034027223" y2="0.16459459028073403" />
			<line x1="0" y1="0" x2="-0.9863613034027224" y2="-0.16459459028073378" />
			<line x1="0" y1="0" x2="-0.8794737512064893" y2="-0.4759473930370731" />
			<line x1="0" y1="0" x2="-0.6772815716257411" y2="-0.7357239106731316" />
			<line x1="0" y1="0" x2="-0.40169542465296904" y2="-0.9157733266550576" />
			<line x1="0" y1="0" x2="-0.08257934547233274" y2="-0.9965844930066698" />
			<line x1="0" y1="0" x2="0.2454854871407988" y2="-0.9694002659393305" />
			<line x1="0" y1="0" x2="0.5469481581224266" y2="-0.8371664782625288" />
			<line x1="0" y1="0" x2="0.7891405093963939" y2="-0.6142127126896674" />
			<line x1="0" y1="0" x2="0.9458172417006346" y2="-0.32469946920468373" />
			<animateTransform attributeName="transform" type="rotate" from="360" to ="0" dur="1s" repeatCount="indefinite" />
		</g>
		<g id="bar" fill="red">
			<use xlink:href="#enneadecagon" transform="translate(-1.4, 0) scale(0.75)" />
			<use xlink:href="#enneadecagon" transform="translate(1.4, 0) scale(0.75)" />
			<rect x="-1.5" y="-0.1" width="3" height="0.2" />
		</g>
		<g id="tower">
			<use xlink:href="#bar" transform="rotate(15)" />
			<polygon points="0,0 0.5,3 -0.5,3" />
		</g>
	</defs>
	<use xlink:href="#tower" fill="blue" transform="translate(0, 0.5) scale(0.7)" />
	<use xlink:href="#tower" fill="purple" transform="translate(-2, -1.5) scale(0.5)" />
	<use xlink:href="#tower" fill="green" transform="translate(1.5, -1.5) scale(0.4)" />
</svg>
